<?xml version="1.0" standalone="no"?>
<!DOCTYPE svg PUBLIC "-//W3C//DTD SVG 20010904//EN"
 "http://www.w3.org/TR/2001/REC-SVG-20010904/DTD/svg10.dtd">
<svg version="1.0" xmlns="http://www.w3.org/2000/svg"
 width="768.000000pt" height="768.000000pt" viewBox="0 0 768.000000 768.000000"
 preserveAspectRatio="xMidYMid meet">

<g transform="translate(0.000000,768.000000) scale(0.100000,-0.100000)"
fill="#000000" stroke="none">
<path d="M2660 7514 c-669 -25 -907 -62 -1242 -196 -246 -98 -430 -220 -628
-418 -233 -234 -368 -458 -474 -787 -109 -340 -132 -621 -143 -1709 l-6 -661
289 -7 c159 -3 308 -9 330 -12 l41 -6 6 714 c6 720 15 962 42 1163 80 587 368
967 865 1140 319 111 564 125 2120 125 1524 0 1770 -13 2080 -112 224 -71 388
-174 550 -345 223 -235 335 -535 370 -988 20 -256 32 -1224 26 -1981 -10
-1197 -25 -1395 -122 -1696 -71 -220 -170 -377 -338 -535 -245 -230 -540 -336
-1036 -374 -80 -6 -483 -13 -897 -16 l-752 -5 -5 -42 c-3 -22 -8 -79 -11 -126
-8 -105 -37 -275 -69 -399 l-25 -94 747 6 c1098 9 1339 26 1682 121 372 103
637 258 896 529 132 137 224 264 303 417 158 309 230 596 261 1050 28 395 28
2725 1 3125 -27 387 -84 658 -196 920 -172 401 -487 741 -864 929 -310 156
-596 224 -1076 257 -145 10 -2500 21 -2725 13z"/>
<path d="M5695 6223 c-227 -81 -348 -302 -290 -528 34 -127 120 -230 242 -288
64 -30 74 -32 184 -32 113 0 116 1 191 38 326 161 326 623 0 784 -70 35 -83
38 -176 41 -77 2 -113 -2 -151 -15z"/>
<path d="M3740 5723 c-295 -28 -467 -73 -700 -185 -386 -184 -694 -489 -880
-872 -121 -248 -190 -537 -190 -794 l0 -79 153 -6 c189 -8 345 -31 487 -72 13
-4 15 15 16 128 4 409 203 782 538 1008 150 101 270 153 446 191 125 28 366
29 485 4 605 -131 1017 -652 992 -1256 -14 -327 -131 -594 -362 -825 -231
-231 -498 -347 -836 -362 l-127 -6 8 -29 c5 -15 14 -79 20 -142 12 -122 2
-274 -25 -394 -8 -35 -15 -67 -15 -73 0 -15 262 -10 379 7 861 125 1523 816
1610 1683 56 551 -132 1093 -519 1495 -220 229 -472 388 -765 485 -230 76
-514 114 -715 94z"/>
</g>
</svg>
